<?xml version="1.0" standalone="no"?>
<!DOCTYPE svg PUBLIC "-//W3C//DTD SVG 20010904//EN"
 "http://www.w3.org/TR/2001/REC-SVG-20010904/DTD/svg10.dtd">
<svg version="1.0" xmlns="http://www.w3.org/2000/svg"
 width="700.000000pt" height="700.000000pt" viewBox="0 0 700.000000 700.000000"
 preserveAspectRatio="xMidYMid meet">
<metadata>
Created by potrace 1.14, written by Peter Selinger 2001-2017
</metadata>
<g transform="translate(0.000000,700.000000) scale(0.100000,-0.100000)"
fill="#000000" stroke="none">
<path d="M4897 6984 c-1 -1 -33 -5 -72 -8 -91 -8 -137 -14 -194 -27 -25 -6
-59 -13 -76 -16 -68 -11 -304 -96 -408 -147 -113 -54 -252 -140 -362 -224 -63
-48 -301 -286 -875 -871 -452 -461 -480 -490 -531 -558 -24 -32 -49 -64 -56
-70 -6 -7 -33 -46 -58 -87 -47 -73 -50 -76 -144 -121 -185 -90 -246 -138 -526
-420 -202 -203 -998 -1013 -1050 -1069 -248 -264 -437 -622 -500 -947 -9 -45
-25 -134 -30 -169 -10 -62 -13 -393 -4 -470 50 -434 235 -832 532 -1146 557
-590 1419 -779 2182 -477 112 44 247 114 355 184 160 104 239 179 1024 983 59
61 185 190 280 286 94 97 183 190 198 207 47 55 149 195 171 236 19 33 37 46
116 83 185 87 242 133 556 449 265 267 956 970 1036 1056 187 198 347 464 432
719 38 112 59 196 77 300 6 36 13 76 16 90 10 47 12 395 3 465 -44 351 -145
628 -330 901 -154 229 -402 464 -624 592 -87 50 -285 141 -370 171 -140 48
-303 83 -450 97 -65 6 -313 12 -318 8z m323 -418 c53 -11 76 -16 110 -21 204
-33 440 -139 635 -286 76 -57 123 -100 246 -227 37 -39 131 -174 178 -257 91
-160 162 -373 190 -570 10 -69 8 -377 -2 -425 -3 -14 -11 -52 -16 -85 -45
-253 -191 -546 -371 -745 -33 -36 -607 -623 -958 -979 -200 -203 -203 -205
-197 -166 14 104 17 139 19 270 3 158 -5 267 -29 385 -6 30 -19 16 391 437
422 432 442 453 498 533 75 105 144 252 162 345 5 26 13 64 20 95 3 14 7 77 9
140 8 281 -86 536 -271 738 -173 187 -373 295 -632 338 -20 4 -91 7 -157 6
-221 0 -395 -53 -588 -179 -77 -51 -139 -111 -807 -793 -223 -227 -430 -438
-460 -469 -184 -187 -268 -327 -321 -531 -109 -419 60 -882 412 -1129 102 -72
248 -137 352 -156 20 -4 37 -10 37 -14 0 -25 -330 -381 -353 -381 -21 0 -165
74 -241 124 -362 236 -624 625 -695 1031 -19 109 -22 139 -25 265 -7 278 53
530 186 780 87 164 136 226 339 435 76 77 184 188 241 247 463 477 835 850
898 901 238 192 533 316 816 343 38 4 70 8 72 9 5 4 286 -4 312 -9z m15 -906
c208 -65 361 -212 431 -416 24 -68 27 -95 28 -199 1 -208 -54 -333 -219 -501
-33 -34 -179 -184 -324 -333 -145 -149 -267 -271 -271 -271 -4 0 -14 15 -21
33 -36 87 -149 267 -237 377 -153 191 -373 377 -579 490 l-63 34 154 156 c85
85 234 237 332 337 219 222 278 263 444 302 98 24 230 20 325 -9z m-1462
-1141 c490 -246 794 -682 863 -1239 15 -116 6 -355 -16 -455 -5 -22 -12 -56
-15 -75 -23 -132 -131 -382 -229 -528 -71 -105 -111 -149 -505 -551 -929 -949
-933 -952 -1160 -1069 -236 -122 -442 -173 -712 -176 -415 -6 -802 147 -1103
434 -240 230 -406 538 -462 860 -20 113 -26 384 -11 495 34 255 143 518 302
730 70 92 68 90 473 503 781 797 774 791 768 752 -30 -172 -26 -513 9 -666 5
-24 19 -9 -400 -439 -479 -492 -492 -506 -564 -645 -116 -222 -149 -498 -90
-740 96 -390 410 -695 803 -781 93 -21 264 -29 358 -17 152 20 326 86 461 175
84 55 113 83 1237 1232 92 94 167 181 207 241 173 258 223 570 138 865 -84
291 -287 536 -565 682 -41 22 -105 51 -142 64 -38 13 -68 29 -68 35 0 6 19 33
42 60 67 77 281 294 290 294 5 0 45 -19 91 -41z m-447 -755 c157 -69 297 -200
364 -338 21 -45 41 -92 44 -106 2 -14 8 -40 12 -57 8 -39 -1 -41 -73 -18 -160
52 -302 187 -377 358 -22 49 -46 140 -46 172 0 20 8 19 76 -11z m-1162 -782
c135 -268 376 -545 632 -724 67 -47 184 -118 194 -118 33 0 5 -39 -118 -163
-77 -78 -225 -228 -328 -334 -108 -109 -213 -206 -246 -227 -231 -146 -528
-133 -743 31 -247 189 -324 527 -183 808 18 36 40 74 50 85 10 11 18 22 18 25
0 3 78 85 173 182 94 97 194 199 221 227 127 133 280 286 285 286 3 0 23 -35
45 -78z"/>
</g>
</svg>
